# xmcd
#
# Track frame offsets: 
#        150
#        19667
#        37187
#        56010
#        69702
#        85382
#        99245
#        115347
#        131620
#        153365
#
# Disc length: 2260 seconds
#
# Revision: 2
# Processed by: cddbd v1.5.2PL0 Copyright (c) Steve Scherf et al.
# Submitted via: ExactAudioCopy v1.0b3
#
DISCID=8408d20a
DTITLE=Smith, Darden - Darden Smith
DYEAR=2001
DGENRE=New Country
TTITLE0=Two Dollar Novels
TTITLE1=Want You By My Side
TTITLE2=Love Me Like A Soldier
TTITLE3=Little Maggie
TTITLE4=Day After Tomorrow
TTITLE5=God's Will
TTITLE6=Talk To Me
TTITLE7=Coldest Winter
TTITLE8=Place In Time
TTITLE9=Driving Rain
EXTD=
EXTT0=
EXTT1=
EXTT2=
EXTT3=
EXTT4=
EXTT5=
EXTT6=
EXTT7=
EXTT8=
EXTT9=
PLAYORDER=
